<?xml version="1.0" encoding="utf-8"?>
<!-- Generator: Adobe Illustrator 16.0.3, SVG Export Plug-In . SVG Version: 6.00 Build 0)  -->
<!DOCTYPE svg PUBLIC "-//W3C//DTD SVG 1.1//EN" "http://www.w3.org/Graphics/SVG/1.1/DTD/svg11.dtd">
<svg version="1.1" id="Capa_2" xmlns="http://www.w3.org/2000/svg" xmlns:xlink="http://www.w3.org/1999/xlink" x="0px" y="0px"
	 width="122.686px" height="150.442px" viewBox="0 0 122.686 150.442" enable-background="new 0 0 122.686 150.442"
	 xml:space="preserve">
<path fill="#74081A" d="M114.506,75.476c0,29.267-23.803,52.96-53.074,52.96S8.178,104.759,8.178,75.492
	c0-29.267,23.982-53.484,53.254-53.484S114.506,46.209,114.506,75.476z"/>
<path fill="#E9B341" d="M61.375,17.792c-32.275,0-57.523,25.24-57.523,57.516s25.412,57.344,57.688,57.344
	s57.293-25.136,57.293-57.411S93.651,17.792,61.375,17.792z M61.432,128.436c-29.271,0-53.254-23.677-53.254-52.944
	c0-29.267,23.982-53.484,53.254-53.484s53.074,24.202,53.074,53.469C114.506,104.743,90.704,128.436,61.432,128.436z"/>
<path fill="#FACA2C" d="M61.213,13.854C27.295,13.854,0,41.304,0,75.222s27.353,61.367,61.271,61.367s61.414-27.496,61.414-61.414
	S95.13,13.854,61.213,13.854z M61.54,132.651c-32.275,0-57.688-25.068-57.688-57.344s25.248-57.516,57.523-57.516
	c32.276,0,57.456,25.173,57.456,57.449S93.816,132.651,61.54,132.651z"/>
<g>
	<polygon fill="#E6A421" points="35.303,67.211 120.241,0 62.162,57.071 	"/>
	<polygon fill="#E6A421" points="63.834,91.571 5.318,149.071 45.459,101.086 	"/>
	<polygon fill="#782200" points="62.334,57 120.241,0 80.256,47.984 	"/>
	<polygon fill="#782200" points="90.147,81.93 5.318,149.071 63.834,91.571 	"/>
	<polygon fill="#E9B341" points="101.27,48.055 80.084,48.055 62.162,57.071 79.928,57.071 	"/>
	<polygon fill="#A4550C" points="24.162,101.04 45.459,101.086 63.834,91.571 46.912,91.571 	"/>
	<polygon fill="#A4550C" points="35.303,67.211 59.1,67.211 79.928,57.071 62.162,57.071 	"/>
	<polygon fill="#E9B341" points="90.147,81.93 66.312,81.93 46.912,91.571 63.834,91.571 	"/>
	<polygon fill="#A4550C" points="101.27,48.055 79.928,57.071 46.912,91.571 66.312,81.93 	"/>
	<polygon fill="#E9B341" points="24.162,101.086 46.912,91.571 79.928,57.071 59.1,67.211 	"/>
	<polygon points="91.35,83.133 90.147,81.93 5.1,149.228 6.365,150.442 	"/>
	<polygon points="80.084,48.055 82.256,48.055 121.522,1.243 120.241,0 	"/>
	<polygon points="102.538,49.352 101.27,48.055 66.312,81.93 68.896,81.93 	"/>
	<polygon points="57.827,68.446 36.271,68.446 35.303,67.211 59.053,67.211 	"/>
	<polygon points="44.427,102.321 25.287,102.321 23.99,101.04 45.49,101.086 	"/>
</g>
</svg>
